<svg xmlns="http://www.w3.org/2000/svg" viewBox="0 0 24 24" fill="white">
<path d="M12 .5A12 12 0 0 0 0 12.6a12.1 12.1 0 0 0 8.2 11.5c.6.1.8-.3.8-.6v-2c-3.3.7-4-1.6-4-1.6a3.2 3.2 0 0 0-1.3-1.8c-1-.7.1-.7.1-.7a2.6 2.6 0 0 1 2 1.4 2.7 2.7 0 0 0 3.7 1 2.8 2.8 0 0 1 .8-1.7c-2.7-.3-5.5-1.4-5.5-6a4.6 4.6 0 0 1 1.2-3.2 4.2 4.2 0 0 1 .1-3.1s1-.3 3.3 1.3a11.3 11.3 0 0 1 6 0C17.8 5 18.7 5.2 18.7 5.2a4.2 4.2 0 0 1 .1 3.1 4.7 4.7 0 0 1 1.2 3.2c0 4.6-2.8 5.7-5.6 6a3 3 0 0 1 .9 2.3v3.4c0 .3.2.7.8.6A12.1 12.1 0 0 0 24 12.6 12 12 0 0 0 12 .5z"/>
</svg>
